HIERARCHY
ROOT Hips
{
	OFFSET 0.00000 0.00000 0.00000
	CHANNELS 6 Xposition Yposition Zposition Zrotation Yrotation Xrotation 
	JOINT LHipJoint
	{
		OFFSET 0 0 0
		CHANNELS 3 Zrotation Yrotation Xrotation
		JOINT LeftHip
		{
			OFFSET 1.29432 -1.88279 0.59910
			CHANNELS 3 Zrotation Yrotation Xrotation
			JOINT LeftKnee
			{
				OFFSET 2.63039 -7.22694 0.00000
				CHANNELS 3 Zrotation Yrotation Xrotation
				JOINT LeftAnkle
				{
					OFFSET 2.70674 -7.43672 0.00000
					CHANNELS 3 Zrotation Yrotation Xrotation
					JOINT LeftToe
					{
						OFFSET 0.15066 -0.41394 2.09027
						CHANNELS 3 Zrotation Yrotation Xrotation
						End Site
						{
							OFFSET 0.00000 -0.00000 1.07518
						}
					}
				}
			}
		}
	}
	JOINT RHipJoint
	{
		OFFSET 0 0 0
		CHANNELS 3 Zrotation Yrotation Xrotation
		JOINT RightHip
		{
			OFFSET -1.37068 -1.88279 0.59910
			CHANNELS 3 Zrotation Yrotation Xrotation
			JOINT RightKnee
			{
				OFFSET -2.57023 -7.06166 0.00000
				CHANNELS 3 Zrotation Yrotation Xrotation
				JOINT RightAnkle
				{
					OFFSET -2.76461 -7.59570 0.00000
					CHANNELS 3 Zrotation Yrotation Xrotation
					JOINT RightToe
					{
						OFFSET -0.24175 -0.64785 2.19719
						CHANNELS 3 Zrotation Yrotation Xrotation
						End Site
						{
							OFFSET -0.00000 -0.00000 1.14803
						}
					}
				}
			}
		}
	}
	JOINT lowerback
	{
		OFFSET 0 0 0
		CHANNELS 3 Zrotation Yrotation Xrotation
		JOINT Chest
		{
			OFFSET -0.03138 2.03983 -0.23106
			CHANNELS 3 Zrotation Yrotation Xrotation
			JOINT Chest2
			{
				OFFSET -0.00325 2.06238 -0.06878
				CHANNELS 3 Zrotation Yrotation Xrotation
				JOINT lowerneck
				{
					OFFSET 0 0 0
					CHANNELS 3 Zrotation Yrotation Xrotation
					JOINT Neck
					{
						OFFSET -0.00002 1.75318 0.18090
						CHANNELS 3 Zrotation Yrotation Xrotation
						JOINT Head
						{
							OFFSET 0.08806 1.75856 -0.25387
							CHANNELS 3 Zrotation Yrotation Xrotation
							End Site
							{
								OFFSET 0.02554 1.78597 -0.10684
							}
						}
					}
				}
				JOINT LeftCollar
				{
					OFFSET 0 0 0
					CHANNELS 3 Zrotation Yrotation Xrotation
					JOINT LeftShoulder
					{
						OFFSET 3.09657 1.33597 -0.04414
CHANNELS 3 Zrotation Xrotation Yrotation
						JOINT LeftElbow
						{
OFFSET 0 -5.342980 -0.000000
CHANNELS 3 Zrotation Xrotation Yrotation
							JOINT LeftWrist
							{
OFFSET 0 -3.672620 -0.000000
CHANNELS 3 Zrotation Xrotation Yrotation
								JOINT lhand
								{
									OFFSET 0 0 0
CHANNELS 3 Zrotation Xrotation Yrotation
									JOINT LFingers
									{
OFFSET 0 -0.599300 -0.000000
CHANNELS 3 Zrotation Xrotation Yrotation
										End Site
										{
OFFSET 0 -0.483170 -0.000000
										}
									}
								}
								JOINT LThumb
								{
OFFSET 0 0.000000 0.000000
CHANNELS 3 Zrotation Xrotation Yrotation
									End Site
									{
OFFSET 0 -0.490550 0.490550
									}
								}
							}
						}
					}
				}
				JOINT RightCollar
				{
					OFFSET 0 0 0
					CHANNELS 3 Zrotation Yrotation Xrotation
					JOINT RightShoulder
					{
						OFFSET -3.16460 1.32273 -0.23382
CHANNELS 3 Zrotation Xrotation Yrotation
						JOINT RightElbow
						{
OFFSET 0 -5.549670 0.033480
CHANNELS 3 Zrotation Xrotation Yrotation
							JOINT RightWrist
							{
OFFSET 0 -3.694010 0.000000
CHANNELS 3 Zrotation Xrotation Yrotation
								JOINT rhand
								{
									OFFSET 0 0 0
CHANNELS 3 Zrotation Xrotation Yrotation
									JOINT RFingers
									{
OFFSET 0 -0.638110 0.000000
CHANNELS 3 Zrotation Xrotation Yrotation
										End Site
										{
OFFSET 0 -0.514460 0.000000
										}
									}
								}
								JOINT RThumb
								{
OFFSET 0 0.000000 0.000000
CHANNELS 3 Zrotation Xrotation Yrotation
									End Site
									{
OFFSET 0 -0.522320 0.522320
									}
								}
							}
						}
					}
				}
			}
		}
	}
}
MOTION
Frames: 13
Frame Time: 0.008333333333333333
11.390700 17.694300 -14.031000 6.037400 -4.468300 2.894000 0.000000 0.000000 0.000000 -27.786600 7.498100 8.886200 0.000000 -0.000000 -0.000000 0.164600 -4.317500 -7.367800 0.791700 5.679900 15.858400 0.000000 0.000000 0.000000 10.813700 16.449700 -24.304200 -1.451800 -7.616100 21.554100 -0.028100 -11.947400 -17.373400 -0.154300 2.531000 -6.975600 -7.652800 -0.689200 0.491500 -2.805900 -0.877500 1.381900 1.384800 -0.506000 1.225000 0.590900 -0.095400 -9.958200 1.235500 -0.588900 24.163400 0.257000 -0.105200 9.223300 0.000000 0.000000 0.000000 4.918300 -9.543000 -24.051600 18.507600 -28.802300 4.791300 16.069400 28.041800 -30.254600 0.000000 0.000000 0.000000 -7.125000 0.000000 0.000000 -17.718000 60.359200 6.761900 0.000000 0.000000 0.000000 0.777000 5.878000 17.503400 -19.211600 -29.680700 -5.135200 -25.583300 5.545700 -23.493000 0.000000 0.000000 0.000000 7.125000 0.000000 -0.000000 2.214800 4.266200 2.045500
11.369658 17.679370 -13.947966 6.335047 -4.297081 2.790360 0.000000 0.000000 0.000000 -27.982529 7.458373 9.307656 0.000000 0.000000 0.000000 0.162505 -4.372594 -7.337066 0.640999 5.117173 14.244085 0.000000 0.000000 0.000000 10.782704 15.556147 -24.432374 -1.491440 -7.714763 21.851049 -0.003391 -11.524198 -16.446145 -0.166174 2.626170 -7.239545 -7.866104 -0.778084 0.573224 -2.839864 -1.005063 1.360858 1.467921 -0.569476 1.171390 0.668259 0.034171 -9.907908 1.257153 -0.428944 24.230019 0.268613 -0.021206 9.236571 0.000000 0.000000 0.000000 4.724467 -9.225795 -23.150364 18.244965 -28.469553 4.665483 16.753316 28.593264 -28.984470 0.000000 0.000000 0.000000 -7.125000 0.000000 0.000000 -16.101764 59.299754 5.722361 0.000000 0.000000 0.000000 0.756656 5.889351 17.557272 -19.057931 -29.490534 -5.059326 -26.380810 5.346366 -23.616896 0.000000 0.000000 0.000000 7.125000 0.000000 0.000000 1.739472 3.974141 1.615138
11.346302 17.666678 -13.869410 6.575905 -4.013328 2.815821 0.000000 0.000000 0.000000 -28.119877 7.267979 9.684860 0.000000 0.000000 0.000000 0.166677 -4.432016 -7.431477 0.535670 4.684964 13.013041 0.000000 0.000000 0.000000 10.802528 14.594313 -24.703081 -1.538393 -7.829694 22.198070 0.048780 -11.151815 -15.124872 -0.178870 2.723729 -7.510579 -7.940233 -0.839580 0.624054 -2.935692 -1.094642 1.314369 1.410823 -0.611087 1.101811 0.740095 0.064567 -10.009999 1.406489 -0.441594 24.395068 0.306866 -0.003030 9.314468 0.000000 0.000000 0.000000 4.803013 -8.955305 -22.850376 17.989867 -28.143896 4.544591 17.119034 28.617506 -28.199025 0.000000 0.000000 0.000000 -7.125000 0.000000 0.000000 -15.201848 58.622385 5.142061 0.000000 0.000000 0.000000 0.925336 5.894806 17.169665 -18.931275 -29.333128 -4.997182 -26.758930 5.230985 -24.172569 0.000000 0.000000 0.000000 7.125000 0.000000 0.000000 1.582343 3.300826 1.488796
11.314440 17.659879 -13.787403 6.745543 -3.936696 2.796278 0.000000 0.000000 0.000000 -28.115526 7.281382 10.040418 0.000000 0.000000 0.000000 0.168448 -4.557889 -7.491237 0.513556 4.593176 12.751868 0.000000 0.000000 0.000000 10.958766 14.004071 -24.829059 -1.590057 -7.953770 22.573921 0.122777 -10.850876 -13.376571 -0.100162 1.936805 -5.334528 -8.150867 -0.853437 0.695149 -2.898408 -1.125861 1.247449 1.567412 -0.623958 1.000592 0.621343 0.079834 -10.038033 1.507298 -0.423513 24.506864 0.364142 0.006309 9.359191 0.000000 0.000000 0.000000 4.637635 -8.485331 -22.322863 17.887919 -28.013367 4.496446 17.053953 28.681557 -27.455852 0.000000 0.000000 0.000000 -7.125000 0.000000 0.000000 -14.817638 57.884308 4.742346 0.000000 0.000000 0.000000 0.875930 5.988633 16.904452 -18.808469 -29.179930 -4.937188 -26.382771 5.487871 -24.374415 0.000000 0.000000 0.000000 7.125000 0.000000 0.000000 1.838980 3.162854 1.735409
11.286246 17.662973 -13.696529 6.910248 -3.817229 2.835686 0.000000 0.000000 0.000000 -28.125559 7.221330 10.334392 0.000000 0.000000 0.000000 0.160622 -4.713394 -7.370339 0.586397 4.893722 13.607575 0.000000 0.000000 0.000000 10.995773 13.664745 -24.993913 -1.648413 -8.091196 22.991682 0.200897 -10.728191 -11.574039 -0.052603 -0.022063 0.060839 -8.341430 -0.917892 0.601373 -2.816510 -1.205206 1.193041 1.755371 -0.664696 1.010398 0.509056 0.100196 -9.973449 1.440301 -0.354322 24.462578 0.367568 0.020748 9.330662 0.000000 0.000000 0.000000 4.337882 -8.038230 -21.609033 17.748463 -27.833553 4.431319 15.701423 28.657003 -28.327502 0.000000 0.000000 0.000000 -7.125000 0.000000 0.000000 -16.821452 58.417171 5.673074 0.000000 0.000000 0.000000 0.712138 6.122525 16.824051 -18.699543 -29.043607 -4.884159 -25.971314 5.990762 -24.103905 0.000000 0.000000 0.000000 7.125000 0.000000 0.000000 2.054991 3.536567 1.925318
11.261703 17.672149 -13.602952 7.110085 -3.559266 2.811262 0.000000 0.000000 0.000000 -28.178406 7.060124 10.717700 0.000000 0.000000 0.000000 0.145417 -4.841415 -7.096593 0.711903 5.385211 15.012306 0.000000 0.000000 0.000000 10.873805 13.528565 -25.049091 -1.711828 -8.237651 23.438474 0.270666 -10.892118 -10.241162 -0.036898 -1.118912 3.077199 -8.454794 -1.012068 0.541843 -2.802611 -1.324033 1.188061 1.830320 -0.726193 1.052873 0.513956 0.101386 -9.924875 1.329869 -0.324722 24.408300 0.331732 0.022737 9.301804 0.000000 0.000000 0.000000 4.177247 -7.734411 -21.023759 17.446449 -27.441561 4.291654 14.480419 28.721103 -29.736387 0.000000 0.000000 0.000000 -7.125000 0.000000 0.000000 -19.031909 59.497662 6.891103 0.000000 0.000000 0.000000 0.653243 6.203618 16.727516 -18.545494 -28.849721 -4.809702 -26.090432 6.535512 -23.602619 0.000000 0.000000 0.000000 7.125000 0.000000 0.000000 1.915818 4.048729 1.777874
11.235272 17.681554 -13.512423 7.266879 -3.324168 2.681209 0.000000 0.000000 0.000000 -28.162033 6.971572 11.195141 0.000000 0.000000 0.000000 0.130913 -4.877528 -6.808799 0.788109 5.665861 15.818264 0.000000 0.000000 0.000000 10.767194 13.720486 -24.860997 -1.775420 -8.381469 23.878905 0.329094 -11.332016 -9.649660 -0.004076 -0.414091 1.137909 -8.487306 -1.068664 0.625969 -2.832525 -1.408681 1.187195 1.818237 -0.767042 1.012688 0.507624 0.090219 -9.923893 1.376294 -0.353129 24.544115 0.346194 0.014607 9.349617 0.000000 0.000000 0.000000 4.179454 -7.421336 -20.596930 17.061493 -26.938464 4.115414 14.763802 29.097632 -29.991721 0.000000 0.000000 0.000000 -7.125000 0.000000 0.000000 -18.918330 59.803651 6.987183 0.000000 0.000000 0.000000 0.706425 6.232455 16.496239 -18.301298 -28.540896 -4.692475 -26.561535 6.944109 -23.222073 0.000000 0.000000 0.000000 7.125000 0.000000 0.000000 1.576286 4.361703 1.452424
11.210659 17.690785 -13.419923 7.221222 -3.249448 2.715215 0.000000 0.000000 0.000000 -27.975686 6.971151 11.487289 0.000000 0.000000 0.000000 0.122495 -4.761425 -6.599040 0.709396 5.377537 14.989788 0.000000 0.000000 0.000000 10.832317 14.236165 -24.705383 -1.836467 -8.516576 24.294439 0.375861 -11.845386 -9.590046 -0.007691 -0.502673 1.381487 -8.336979 -1.113904 0.517016 -2.754687 -1.464336 1.083493 1.814336 -0.789836 0.969398 0.280426 0.126928 -9.826298 1.580452 -0.311237 24.812438 0.460662 0.035999 9.425562 0.000000 0.000000 0.000000 4.064970 -6.887859 -20.048035 16.756387 -26.535138 3.978169 15.141021 29.414359 -29.943966 0.000000 0.000000 0.000000 -7.125000 0.000000 0.000000 -18.484223 59.845690 6.840354 0.000000 0.000000 0.000000 0.621250 6.318580 16.272556 -18.035695 -28.202772 -4.566191 -26.607424 7.048041 -23.195951 0.000000 0.000000 0.000000 7.125000 0.000000 0.000000 1.544532 4.380458 1.422651
11.188482 17.699254 -13.329555 7.064497 -3.005498 2.497546 0.000000 0.000000 0.000000 -27.632899 6.966087 12.141345 0.000000 0.000000 0.000000 0.116208 -4.529000 -6.397960 0.547781 4.740856 13.170900 0.000000 0.000000 0.000000 11.126734 14.299117 -24.319638 -1.901776 -8.658458 24.732659 0.395069 -12.103656 -9.723110 -0.036504 -1.229198 3.379714 -8.129176 -1.184190 0.757561 -2.582070 -1.585613 1.075635 1.882527 -0.844755 0.835897 0.062058 0.146660 -9.614741 1.628474 -0.249856 24.765901 0.520471 0.048485 9.368286 0.000000 0.000000 0.000000 4.003852 -6.526125 -20.024112 16.348814 -25.991358 3.797607 14.237252 28.647496 -30.531490 0.000000 0.000000 0.000000 -7.125000 0.000000 0.000000 -19.884012 60.187518 7.544090 0.000000 0.000000 0.000000 0.431171 6.347306 16.116092 -17.846751 -27.960568 -4.477133 -25.969085 6.664304 -23.373544 0.000000 0.000000 0.000000 7.125000 0.000000 0.000000 1.961623 4.317680 1.809444
11.172311 17.709611 -13.236698 6.893699 -2.685091 2.210371 0.000000 0.000000 0.000000 -27.272949 6.939828 12.935871 0.000000 0.000000 0.000000 0.106146 -4.505350 -6.162127 0.479441 4.438834 12.314797 0.000000 0.000000 0.000000 11.555528 13.607458 -24.016270 -1.967858 -8.798625 25.167532 0.367254 -11.787515 -9.700944 -0.091747 -1.933240 5.321649 -7.713542 -1.236800 0.997677 -2.537311 -1.671450 1.200267 1.702384 -0.887060 0.826135 0.058300 0.087791 -9.418200 1.629901 -0.325514 24.451466 0.511804 0.011030 9.221424 0.000000 0.000000 0.000000 4.024510 -6.382261 -19.771849 15.913695 -25.402956 3.609237 13.648406 28.205938 -30.525296 0.000000 0.000000 0.000000 -7.125000 0.000000 0.000000 -20.501646 60.043748 7.718895 0.000000 0.000000 0.000000 0.492429 6.154900 15.836149 -17.509529 -27.524262 -4.320370 -26.225483 6.108175 -23.340989 0.000000 0.000000 0.000000 7.125000 0.000000 0.000000 1.799154 4.301497 1.660012
11.155441 17.712031 -13.141532 6.778739 -2.449849 2.014331 0.000000 0.000000 0.000000 -27.043002 6.938717 13.565919 0.000000 0.000000 0.000000 0.097115 -4.267306 -5.881082 0.356139 3.817498 10.565843 0.000000 0.000000 0.000000 11.883281 13.008687 -23.777376 -2.032125 -8.932326 25.584066 0.322675 -11.306883 -9.780698 -0.144234 -2.435804 6.712138 -7.316571 -1.275719 1.036188 -2.549850 -1.717254 1.331826 1.468463 -0.912400 0.931365 0.123086 0.073466 -9.517992 1.691569 -0.374834 24.498388 0.517000 0.001363 9.257406 0.000000 0.000000 0.000000 3.745996 -6.084781 -18.267763 15.680496 -25.085348 3.509500 13.673008 29.270975 -30.072827 0.000000 0.000000 0.000000 -7.125000 0.000000 0.000000 -20.132259 59.627213 7.373317 0.000000 0.000000 0.000000 0.609346 5.924840 15.286490 -17.136659 -27.036883 -4.149626 -26.612861 6.249828 -23.584446 0.000000 0.000000 0.000000 7.125000 0.000000 0.000000 1.592463 3.961908 1.478816
11.134245 17.709822 -13.043507 6.718598 -2.464126 1.882205 0.000000 0.000000 0.000000 -26.901677 7.125372 14.017804 0.000000 0.000000 0.000000 0.085577 -3.869462 -5.481148 0.194355 2.751054 7.591998 0.000000 0.000000 0.000000 12.141776 12.680038 -23.553977 -2.093862 -9.058493 25.978742 0.265273 -10.662299 -9.878824 -0.182621 -2.748682 7.580076 -7.046065 -1.228762 0.904375 -2.567274 -1.633212 1.459202 1.295839 -0.875929 1.121766 0.247885 0.077843 -9.842946 1.709124 -0.404617 24.754136 0.500282 0.004028 9.409554 0.000000 0.000000 0.000000 3.470426 -5.799899 -16.874695 15.439014 -24.753724 3.407893 13.619601 30.515842 -29.957116 0.000000 0.000000 0.000000 -7.125000 0.000000 0.000000 -20.099519 59.507253 7.301125 0.000000 0.000000 0.000000 0.704845 5.674203 14.497564 -16.786806 -26.575182 -3.991870 -26.591178 6.782029 -24.173956 0.000000 0.000000 0.000000 7.125000 0.000000 0.000000 1.684593 3.335128 1.585355
11.113009 17.711781 -12.944647 6.534521 -2.520556 1.763514 0.000000 0.000000 0.000000 -26.596342 7.339237 14.448977 0.000000 0.000000 0.000000 0.067243 -3.777226 -4.957370 0.111537 2.152651 5.927676 0.000000 0.000000 0.000000 12.559207 12.270238 -23.310830 -2.146180 -9.163913 26.309601 0.200392 -9.894051 -9.977999 -0.209141 -2.942844 8.119785 -6.670169 -1.160906 0.744575 -2.524057 -1.522038 1.562357 1.127336 -0.823440 1.300011 0.382420 0.087673 -9.946890 1.630695 -0.399066 24.804026 0.451413 0.011709 9.446620 0.000000 0.000000 0.000000 3.251665 -5.553068 -15.871228 15.082128 -24.259214 3.260311 14.661464 31.949161 -29.652273 0.000000 0.000000 0.000000 -7.125000 0.000000 0.000000 -18.780319 59.457731 6.782959 0.000000 0.000000 0.000000 0.750872 5.451612 13.646562 -16.435719 -26.107053 -3.836172 -26.423497 7.401705 -24.670211 0.000000 0.000000 0.000000 7.125000 0.000000 0.000000 1.854363 2.838836 1.761398
